<svg xmlns="http://www.w3.org/2000/svg" viewBox="0 0 242.6 153"><style>.st0{fill:#dbd8d1}.st1{fill:#c6c4be}.st2{fill:#fff}.st3{fill:#8c8c8c}.st4{fill:#f47c20}</style><path class="st0" d="M242.7 8.2v136.7c0 4.5-3.7 8.2-8.2 8.2H8.2c-4.5 0-8.2-3.7-8.2-8.2V8.2C0 3.7 3.7 0 8.2 0h226.3c4.5 0 8.2 3.7 8.2 8.2z"/><path class="st1" d="M132.7 98.9L93.8 77.8c10.6-27.6 6.2-50.1-9.4-58.6-15.6-8.5-36.9.1-54.2 24.1L0 26.9v117.9c0 4.5 3.7 8.2 8.2 8.2h102l23.3-52c.3-.7 0-1.7-.8-2.1zM84.8 73L39.2 48.3C50.7 32.5 66 20.8 79.6 28.2c13.5 7.4 12 26.5 5.2 44.8z"/><path class="st2" d="M73.2 115.9c-.2-.3-.7-.5-1.1-.5-.5 0-1.1.2-1.1.8 0 .6.5.7 1.2.9.8.2 1.8.6 1.8 1.8 0 1.3-1 1.9-2.2 1.9-.8 0-1.6-.3-2.1-.9l.8-.7c.3.4.8.7 1.3.7s1.1-.2 1.1-.9c0-.6-.6-.8-1.4-1-.7-.2-1.5-.6-1.5-1.7 0-1.2 1.1-1.8 2.2-1.8.6 0 1.3.2 1.7.7l-.7.7zM78.7 118.2v2.5h-1v-2.2c0-.5-.1-1.1-.8-1.1-.7 0-1 .6-1 1.1v2.2h-1v-6.4h1v2.9c.2-.3.6-.7 1.2-.7 1.2 0 1.6.8 1.6 1.7M81.9 116.5c1.2 0 2.2.9 2.2 2.1 0 1.3-1 2.2-2.2 2.2-1.2 0-2.2-.9-2.2-2.2 0-1.2 1-2.1 2.2-2.1m0 3.5c.8 0 1.2-.7 1.2-1.3s-.4-1.3-1.2-1.3c-.8 0-1.2.7-1.2 1.3s.4 1.3 1.2 1.3M86.1 116.6v.6c.2-.3.7-.7 1.4-.7 1.2 0 2 .9 2 2.1 0 1.2-.8 2.2-2 2.2-.6 0-1.1-.3-1.4-.7v2.6h-1v-6.1h1zm1.2.7c-.7 0-1.2.7-1.2 1.3s.4 1.3 1.2 1.3c.8 0 1.2-.7 1.2-1.3s-.4-1.3-1.2-1.3M96.3 116.2c.8 0 1.5.7 1.5 1.5s-.7 1.5-1.5 1.5-1.5-.7-1.5-1.5.6-1.5 1.5-1.5M103.3 114.7h2.1c1.6 0 3.3.7 3.3 3 0 2.1-1.7 3-3.3 3h-2.1v-6zm2 5.1c1.1 0 2.3-.4 2.3-2.1 0-1.7-1.2-2.1-2.3-2.1h-.9v4.2h.9zM111.7 116.5c1.2 0 2.2.9 2.2 2.1 0 1.3-1 2.2-2.2 2.2-1.2 0-2.2-.9-2.2-2.2 0-1.2 1-2.1 2.2-2.1m0 3.5c.8 0 1.2-.7 1.2-1.3s-.4-1.3-1.2-1.3c-.8 0-1.2.7-1.2 1.3s.4 1.3 1.2 1.3M114.4 116.6h1.1l.8 3h.1l.8-3h1.1l.9 3 .9-3h1l-1.4 4.1h-1l-.9-2.8-1 2.8h-1zM121.8 116.6h1v.7c.2-.4.7-.8 1.3-.8 1.1 0 1.5.8 1.5 1.7v2.5h-1v-2.3c0-.5-.1-1.1-.8-1.1-.7 0-.9.6-.9 1.1v2.3h-1l-.1-4.1zM126.8 114.3h1v6.4h-1zM131 116.5c1.2 0 2.2.9 2.2 2.1 0 1.3-1 2.2-2.2 2.2-1.2 0-2.2-.9-2.2-2.2 0-1.2 1-2.1 2.2-2.1m0 3.5c.8 0 1.2-.7 1.2-1.3s-.4-1.3-1.2-1.3c-.8 0-1.2.7-1.2 1.3s.4 1.3 1.2 1.3M136.7 120.2c-.2.4-.7.6-1.3.6-.7 0-1.5-.3-1.5-1.3 0-1.2 1.5-1.4 2.8-1.4v-.1c0-.5-.4-.7-.9-.7-.4 0-.8.2-1.1.5l-.5-.6c.5-.4 1.1-.7 1.7-.7 1.5 0 1.8.9 1.8 1.7v2.5h-.9v-.5h-.1zm0-1.4h-.2c-.6 0-1.5.1-1.5.7 0 .4.4.5.7.5.7 0 1.1-.4 1.1-1v-.2zM143 120.7h-1v-.6c-.3.5-.8.7-1.4.7-1.2 0-2-1-2-2.2 0-1.2.8-2.1 2-2.1.7 0 1.2.4 1.4.6v-2.9h1v6.5zm-2.2-.7c.7 0 1.2-.7 1.2-1.3s-.4-1.3-1.2-1.3c-.8 0-1.2.7-1.2 1.3s.5 1.3 1.2 1.3M150.1 116.2c.8 0 1.5.7 1.5 1.5s-.7 1.5-1.5 1.5-1.5-.7-1.5-1.5.6-1.5 1.5-1.5M157.1 114.7h2c1.4 0 2.3.5 2.3 1.7 0 1.3-1.1 1.8-2.3 1.8h-.8v2.5h-1.1v-6h-.1zm1.8 2.6c.7 0 1.3-.2 1.3-.9s-.6-.8-1.3-.8h-.8v1.7h.8zM162.2 114.3h1v6.4h-1zM167 120.2c-.2.4-.7.6-1.3.6-.7 0-1.5-.3-1.5-1.3 0-1.2 1.5-1.4 2.8-1.4v-.1c0-.5-.4-.7-.9-.7-.4 0-.9.2-1.1.5l-.5-.6c.5-.4 1.1-.7 1.7-.7 1.5 0 1.8.9 1.8 1.7v2.5h-1v-.5zm0-1.4h-.2c-.7 0-1.6.1-1.6.7 0 .4.4.5.7.5.7 0 1.1-.4 1.1-1v-.2zM168.6 116.6h1.1l1.1 3 1-3h1.1l-1.9 5c-.3.7-.7 1.2-1.5 1.2-.2 0-.4 0-.5-.1l.1-.9c.1 0 .3.1.4.1.4 0 .6-.2.7-.6l.2-.5-1.8-4.2z"/><g><path class="st3" d="M68.3 93.1c-1.2 0-2.3.5-3 1.3v-.9H62v11.2h3.3v-5.5c0-2.2 1.2-3.1 2.5-3.1.9 0 2.3.6 2.3 2.8v5.8h3.3v-6c0-3.8-2.6-5.6-5.1-5.6m-10.1-4.9c-1 0-1.9.9-1.9 1.9s.9 1.9 1.9 1.9 1.9-.9 1.9-1.9c0-1-.8-1.9-1.9-1.9m-1.6 16.5h3.3V93.5h-3.3v11.2zm-6-6L44 90c-.7-.9-1.3-1.2-1.9-1.2-1.2 0-1.9.7-1.9 1.8v14h3.5v-9.8l6.6 8.7c.7.9 1.3 1.2 1.9 1.2 1.2 0 1.9-.7 1.9-1.8v-14h-3.5v9.8zm75.9-5.6c-3.3 0-6 2.7-6 6s2.7 5.9 6 5.9 6-2.7 6-5.9c0-3.3-2.7-6-6-6m0 9c-1.6 0-2.9-1.3-2.9-3s1.3-3 2.9-3c1.6 0 2.9 1.3 2.9 3 .1 1.7-1.2 3-2.9 3M79.4 90.4h-3.2v3.1H74v2.6h2.2v8.6h3.2v-8.6h2.2v-2.6h-2.2v-3.1zm21.6 2.7c-1.2 0-2.3.5-3 1.3v-.9h-3.3v11.2H98v-5.5c0-2.2 1.2-3.1 2.5-3.1.9 0 2.3.6 2.3 2.8v5.8h3.3v-6c.1-3.8-2.5-5.6-5.1-5.6m15.2 1.2c-.3-.4-1.5-1.2-3.1-1.2-3.2 0-5.9 2.7-5.9 5.9 0 3.3 2.7 6 5.9 6 1.5 0 2.7-.8 3-1.2h.1v.8h3.3V88.9h-3.3v5.4zm-2.9 7.8c-1.7 0-3-1.4-3-3 0-1.7 1.3-3 3-3s3 1.3 3 3c-.1 1.7-1.3 3-3 3m-25.6-9c-3.4 0-5.9 3-5.9 5.9 0 3.1 2.5 6 5.9 6 2.4 0 4.4-1.4 5.3-3.1l-2.7-.9c-.7.9-1.5 1.3-2.7 1.3-1.1 0-2.5-.7-2.8-2.2h6.6c1.4 0 2.1-.3 2.1-1.3.1-2.4-1.9-5.7-5.8-5.7M85 97.9c.5-1.4 1.6-2 2.8-2 1.6 0 2.5 1 2.9 2H85z"/><path class="st4" d="M145.7 90.9s0-.1 0 0l.3-4.1s0-.1-.1-.1l-1.7.2s-.1 0 0 .1l1.5 3.9c-.1 0 0 0 0 0m37.4 2.2c-3.3 0-6 2.7-6 6s2.7 5.9 6 5.9 6-2.7 6-5.9c0-3.3-2.7-6-6-6m0 9c-1.6 0-2.9-1.4-2.9-3 0-1.7 1.3-3 2.9-3 1.6 0 2.9 1.3 2.9 3s-1.3 3-2.9 3m-36-11.1l2.2-3.5v-.1l-1.6-.6h-.1l-.5 4.2c-.1 0-.1 0 0 0-.1 0-.1 0 0 0m-2.7 11.1c-.9 0-1.9-.4-2.5-1l6.5-3.8c1.4-.8 2-1.5 1.5-2.6-.9-1.5-3.3-3.1-5.9-3.1-3.6 0-6.6 3.2-6.6 6.8 0 3.8 3.3 6.8 7 6.8 3.4 0 6.4-2.4 6.6-6h-3.4c0 1.6-1.3 2.9-3.2 2.9m-.1-7.5c.9 0 1.6.3 2.3.9l-5.9 3.4c-.4-2.2 1.3-4.3 3.6-4.3m6.3-6.2s-.1 0 0 0l-2.5 3.3 3.6-2v-.1l-1.1-1.2zm20.3 4.7c-1.2 0-2.3.5-3 1.3v-5.5h-3.3v15.8h3.3v-5.5c0-2.2 1.2-3.1 2.5-3.1.9 0 2.4.6 2.4 2.8v5.8h3.3v-6c-.1-3.8-2.7-5.6-5.2-5.6m25.6 0c-1.5 0-2.7.8-3 1.2h-.1v-.8h-3.3v15.8h3.3v-5.4h.1c.3.4 1.5 1.2 3 1.2 3.2 0 5.9-2.7 5.9-5.9 0-3.4-2.7-6.1-5.9-6.1m-.2 9c-1.7 0-3-1.3-3-3s1.3-3 3-3 3 1.4 3 3c.1 1.7-1.2 3-3 3m-37.7-6.9c-1.6-.5-2.8-.9-2.8-2 0-.7.6-1.4 1.8-1.4 1.2 0 1.9.6 2.5 1.1l2.7-1.9c-1.1-1.4-3.1-2.6-5.1-2.6-2.8 0-5.3 2.1-5.3 4.8 0 2 1.4 4 4.2 4.9 1.8.6 2.9 1 2.9 2.1 0 .8-.8 1.5-1.8 1.5-1.2 0-2.2-.8-2.9-1.5l-2.8 2c1.4 1.6 3.7 2.8 5.7 2.8 3.2 0 5.3-2.4 5.3-4.9.1-1.8-1-3.7-4.4-4.9"/></g><path class="st4" d="M141.6 42.3c0-.2-.2-.4-.4-.4h-10.9c-.9-7.3-4.5-11.6-8.9-11.6s-8 4.4-8.9 11.6h-11c-.2 0-.4.2-.4.4l-2.7 36.4c0 .1 0 .2.1.3.1.1.2.1.3.1h45.1c.1 0 .2 0 .3-.1.1-.1.1-.2.1-.3l-2.7-36.4zm-20.3-9.5c3.8 0 5.7 4.3 6.4 9.1h-12.8c.7-4.8 2.6-9.1 6.4-9.1"/></svg>