<svg xmlns="http://www.w3.org/2000/svg" viewBox="0 0 2024.6 313.3" fill="#fafafa"><path d="M1977.5 59.4c9.4-1.3 16.6-6.2 16.6-17.7 0-12.6-7.5-18.2-22.6-18.2h-24.4v64.1h9.8V59.8h11.1l16.9 27.8h10.8l-18.2-28.2zm-20.7-7.8V31.8h13.2c6.7 0 13.9 1.5 13.9 9.4 0 9.8-7.3 10.4-15.5 10.4h-11.6zM344.3 114.9h84.6V302h-84.6zM1013.5 126.4s.1 0 0 0c.1 0 .1 0 0 0zM899.4 115.3V87.5h-45.8V49.6h-84.7v37.9h-46v27.8h46v186.8h84.7V115.3zM344.2 20.6H429v57.5h-84.8zM209 216.9L87.7 20.6H0v281.5h87.1V105.8L209 302.1h86.9V20.6h-87zM627.1 106.3c-25.2.8-49.2 10.8-67.5 28.2-.1-4.6 0-19.7 0-19.7l-84.1.1.1 187.1h84l-.1-122.9c0-16.3 17.1-34.5 40.2-34.5 23 0 38.6 18.1 38.6 34.5V302h84.1s-.1-88.7 0-101.8c.5-74.1-63.7-94.8-95.3-93.9zM1827.2 102.1c-68.3 0-123.6 47.1-123.6 105.1s55.4 105.1 123.6 105.1c68.4 0 123.7-47 123.7-105.1 0-58-55.3-105.1-123.7-105.1zm34 104.9v.1c0 1.8-.1 28.5-.1 39.5 0 29.8-17.6 42.2-34.6 42.2-16.9 0-34.7-12.3-34.7-42.2 0-11.4.1-40.3.1-40.3s.1-27.7.1-39c0-29.7 17.7-41.9 34.5-41.9s34.6 12.2 34.6 41.9c0 11.4 0 32.3.1 39.8v-.1zM1137.6 209.3c0-58.1-56-106.1-124.8-106.1s-124.6 47.1-124.6 105c0 58.1 55.8 105.1 124.6 105.1 57.1 0 105.3-32.6 120.1-76.8l-84.4.1s.1.8.1 11.4c0 34.2-22.5 41.9-35 41.9s-35.4-7.6-35.4-41.9c0-10.3.1-38.6.1-38.6s159.3 0 159.3-.1zm-159.4-29.2c-.2-16.4.2-27.3 5.6-36.7 6.7-11.5 18.8-17 29.8-17.1h.1c11.1.1 23.1 5.5 29.7 17.1 5.4 9.4 5.7 20.4 5.6 36.7h-70.8zM1861.2 207.1v-.1.1zM1314.8 106.3c-25.2.7-49.3 10.8-67.5 28.2-.1-4.6 0-19.7 0-19.7l-84 .1-.1 187.1h84l-.1-122.9c0-16.3 17.2-34.5 40.2-34.5s38.6 18.1 38.6 34.5V302h84.1s-.1-88.7.1-101.8c.5-74.1-63.7-94.8-95.3-93.9zM1592.5 124.2c-13.6-7.6-27.8-14.9-47.9-16.7-60.9-5.3-107.6 48.6-107.6 98 0 65.1 50.3 89.2 57.9 92.8 28.5 13.2 65.1 13.3 97.4-7l.1 10.8h83.6V20.6h-83.5v103.6zm.6 83.4v33.2c0 28.9-20 36.5-33.1 36.5-13.5 0-33.2-7.5-33.2-36.5 0-10 .1-33.3.1-33.3s-.1-23.8-.1-33.4c0-28.9 19.7-36.3 33.2-36.3 13.2 0 33.1 7.4 33.1 36.3v33.5z"/><path d="M1968.5 0c-30.6 0-56.4 23.5-56.4 55.4 0 32.2 25.9 55.7 56.4 55.7 30.3 0 56.1-23.5 56.1-55.7 0-31.9-25.8-55.4-56.1-55.4zm0 101.8c-25.4 0-45.2-19.7-45.2-46.4 0-26.3 19.8-46.1 45.2-46.1 25.2 0 44.9 19.9 44.9 46.1.1 26.8-19.7 46.4-44.9 46.4z"/></svg>